<svg xmlns="http://www.w3.org/2000/svg" width="67.882" height="67.882" viewBox="0 0 67.882 67.882">
  <defs>
    <style>
      .cls-1 {
        fill: #d21010;
      }

      .cls-2, .cls-3 {
        stroke: none;
      }

      .cls-3 {
        fill: #202020;
      }
    </style>
  </defs>
  <g id="Union_2" data-name="Union 2" class="cls-1" transform="translate(0 33.941) rotate(-45)">
    <path class="cls-2" d="M 32.00040054321289 47.49970245361328 L 0.5000012516975403 47.49970245361328 L 0.5000012516975403 16.00020217895508 C 0.5000012516975403 11.8597412109375 2.112241268157959 7.967241287231445 5.039741039276123 5.039741039276123 C 7.967241287231445 2.112241268157959 11.8597412109375 0.5000012516975403 16.00020217895508 0.5000012516975403 C 20.14033126831055 0.5000012516975403 24.03271102905273 2.112251281738281 26.96033096313477 5.039751052856445 C 29.88804054260254 7.967341423034668 31.50040054321289 11.85984134674072 31.50040054321289 16.00020217895508 L 31.50040054321289 16.50020217895508 L 32.00040054321289 16.50020217895508 C 36.14047241210938 16.50020217895508 40.03269195556641 18.11244201660156 42.96006011962891 21.03993034362793 C 45.88749313354492 23.96748161315918 47.49970245361328 27.85998153686523 47.49970245361328 32.00040054321289 C 47.49970245361328 36.14043045043945 45.88750076293945 40.03264999389648 42.9600715637207 42.9600715637207 C 40.03264999389648 45.88750076293945 36.14043045043945 47.49970245361328 32.00040054321289 47.49970245361328 Z"/>
    <path class="cls-3" d="M 32.00040054321289 46.99970245361328 C 36.00687026977539 46.99970245361328 39.77353286743164 45.43950271606445 42.60652160644531 42.60652160644531 C 45.43950271606445 39.77353286743164 46.99970245361328 36.00687026977539 46.99970245361328 32.00040054321289 C 46.99970245361328 27.9935302734375 45.43950271606445 24.22659111022949 42.60650253295898 21.39348030090332 C 39.7735595703125 18.5604305267334 36.00691223144531 17.00020217895508 32.00040054321289 17.00020217895508 L 31.00040054321289 17.00020217895508 L 31.00040054321289 16.00020217895508 C 31.00040054321289 11.99340152740479 29.4400520324707 8.226470947265625 26.60678100585938 5.393311023712158 C 23.77360153198242 2.560241222381592 20.00678062438965 1.000001192092896 16.00020217895508 1.000001192092896 C 11.99329090118408 1.000001192092896 8.226350784301758 2.560241222381592 5.393290996551514 5.393290996551514 C 2.560241222381592 8.226350784301758 1.000001192092896 11.99329090118408 1.000001192092896 16.00020217895508 L 1.000001192092896 46.99970245361328 L 32.00040054321289 46.99970245361328 M 32.00040054321289 47.99970245361328 L 1.226806602971919e-06 47.99970245361328 L 1.226806602971919e-06 16.00020217895508 C 1.226806602971919e-06 7.163101196289062 7.163101196289062 1.226806602971919e-06 16.00020217895508 1.226806602971919e-06 C 24.83640098571777 1.226806602971919e-06 32.00040054321289 7.163101196289062 32.00040054321289 16.00020217895508 C 40.83660125732422 16.00020217895508 47.99970245361328 23.16330146789551 47.99970245361328 32.00040054321289 C 47.99970245361328 40.83660125732422 40.83660125732422 47.99970245361328 32.00040054321289 47.99970245361328 Z"/>
  </g>
</svg>
